:FULLY-SPECIFIED
:DEGREES
1541
root 0.642488 15.6248 -2.34817 3639.11 -96.5873 -3638.77
lowerback 5.22034 0.745635 -8.15094
upperback -1.24681 0.455189 0.527419
thorax -4.31469 0.441583 5.0951
lowerneck -16.8379 0.95399 1.20126
upperneck 23.0932 1.53297 -3.06973
head 10.1869 0.339461 -1.09694
rclavicle -7.95139e-015 2.66371e-014
rhumerus -46.1682 -28.7271 -64.056
rradius 11.4732
rwrist 32.1326
rhand -27.5693 -18.3784
rfingers 7.12502
rthumb -0.969891 -48.3559
lclavicle -7.95139e-015 2.66371e-014
lhumerus -19.7143 -10.4667 90.5003
lradius 36.0956
lwrist 9.73606
lhand -31.7678 15.0546
lfingers 7.12502
lthumb -5.02457 44.975
rfemur -27.3577 -1.91675 16.0785
rtibia 60.9827
rfoot -14.9925 -22.8906
rtoes -7.47216
lfemur -4.42092 -4.98835 -31.634
ltibia 21.4718
lfoot -13.3954 5.21279
ltoes -5.52477
1542
root 0.658037 15.6218 -2.34931 3639.71 -96.475 -3639.26
lowerback 5.22791 0.737907 -8.18878
upperback -1.28683 0.440174 0.534739
thorax -4.35956 0.438336 5.1255
lowerneck -16.8251 0.872861 1.10469
upperneck 23.0458 1.41325 -2.93875
head 10.1625 0.292908 -1.05005
rclavicle 2.06736e-014 -3.77691e-015
rhumerus -45.653 -28.1333 -64.9438
rradius 11.6369
rwrist 31.1297
rhand -27.7178 -18.2226
rfingers 7.12502
rthumb -1.11334 -48.1995
lclavicle 2.06736e-014 -3.77691e-015
lhumerus -19.6326 -10.606 90.4468
lradius 36.1514
lwrist 9.85553
lhand -31.8498 15.0266
lfingers 7.12502
lthumb -5.10372 44.9451
rfemur -27.9419 -1.4936 16.3728
rtibia 58.9033
rfoot -16.1681 -23.4566
rtoes -7.3315
lfemur -3.95349 -5.06801 -31.7058
ltibia 21.4703
lfoot -13.7261 5.27911
ltoes -5.65204
1543
root 0.676897 15.6092 -2.35317 3640.84 -96.3213 -3640.22
lowerback 5.19821 0.70961 -8.25151
upperback -1.34121 0.398785 0.542475
thorax -4.39477 0.422737 5.17293
lowerneck -16.8052 0.809928 1.10269
upperneck 22.9657 1.31716 -2.90265
head 10.1272 0.254863 -1.04908
rclavicle 1.19271e-014 1.64991e-014
rhumerus -45.0683 -27.5565 -65.8764
rradius 11.83
rwrist 30.202
rhand -27.7642 -18.1722
rfingers 7.12502
rthumb -1.15816 -48.1488
lclavicle 1.19271e-014 1.64991e-014
lhumerus -19.5553 -10.7431 90.414
lradius 36.2115
lwrist 10.032
lhand -31.9397 15.1667
lfingers 7.12502
lthumb -5.19046 45.0831
rfemur -28.4224 -1.09963 16.6427
rtibia 56.5804
rfoot -16.5872 -23.9708
rtoes -8.86092
lfemur -3.5191 -5.10697 -31.7612
ltibia 21.3431
lfoot -14.035 5.2729
ltoes -5.9212
1544
root 0.691908 15.6184 -2.35584 3642.41 -96.1959 -3641.58
lowerback 5.04182 0.669974 -8.38044
upperback -1.35784 0.351689 0.55922
thorax -4.31822 0.40031 5.26803
lowerneck -16.8358 0.766375 1.10207
upperneck 22.8708 1.25774 -2.90025
head 10.0975 0.2301 -1.05505
rclavicle -5.1684e-015 1.19271e-015
rhumerus -44.4034 -27.2119 -66.6461
rradius 11.9517
rwrist 29.5241
rhand -27.8451 -18.0616
rfingers 7.12502
rthumb -1.23633 -48.0378
lclavicle -5.1684e-015 1.19271e-015
lhumerus -19.4704 -10.8612 90.4189
lradius 36.2338
lwrist 10.1288
lhand -32.0969 15.1217
lfingers 7.12502
lthumb -5.34226 45.0343
rfemur -28.8749 -0.658915 16.7856
rtibia 54.1771
rfoot -16.8727 -24.117
rtoes -8.69346
lfemur -2.93311 -5.26897 -31.8705
ltibia 20.9259
lfoot -14.0942 5.34424
ltoes -6.37238
1545
root 0.706673 15.6172 -2.35863 3643.45 -96.124 -3642.38
lowerback 4.92292 0.660656 -8.46951
upperback -1.43229 0.341148 0.561732
thorax -4.32884 0.400227 5.32207
lowerneck -16.8309 0.717392 1.1265
upperneck 22.7991 1.18448 -2.90495
head 10.0692 0.199693 -1.06988
rclavicle 1.07344e-014 -2.78299e-015
rhumerus -43.7121 -26.5804 -67.6472
rradius 12.1468
rwrist 28.6389
rhand -27.9123 -18.1004
rfingers 7.12502
rthumb -1.30118 -48.0762
lclavicle 1.07344e-014 -2.78299e-015
lhumerus -19.5048 -10.9883 90.4345
lradius 36.2076
lwrist 10.2177
lhand -32.322 15.0489
lfingers 7.12502
lthumb -5.55958 44.956
rfemur -29.2051 -0.14586 16.8913
rtibia 51.6131
rfoot -17.0646 -24.0482
rtoes -8.89375
lfemur -2.34784 -5.30574 -31.9441
ltibia 20.4365
lfoot -14.2446 5.29692
ltoes -6.67294
1546
root 0.725522 15.6265 -2.3631 3644.68 -96.0706 -3643.32
lowerback 4.83644 0.657635 -8.60143
upperback -1.54007 0.331498 0.564359
thorax -4.39385 0.405185 5.40034
lowerneck -16.8262 0.656542 1.12334
upperneck 22.7307 1.10169 -2.90761
head 10.0418 0.16256 -1.08064
rclavicle 1.27222e-014 1.96797e-014
rhumerus -43.1967 -26.834 -67.8871
rradius 12.0667
rwrist 28.9259
rhand -28.1002 -17.9731
rfingers 7.12502
rthumb -1.48266 -47.9477
lclavicle 1.27222e-014 1.96797e-014
lhumerus -19.5985 -10.9593 90.4505
lradius 36.1702
lwrist 9.90706
lhand -32.3325 15.1836
lfingers 7.12502
lthumb -5.56978 45.0904
rfemur -29.6263 0.325159 16.9577
rtibia 49.0294
rfoot -16.9452 -23.9408
rtoes -8.95838
lfemur -1.72015 -5.19917 -31.9965
ltibia 19.6967
lfoot -14.2165 5.2074
ltoes -6.72034
1547
root 0.741332 15.6254 -2.36838 3646.13 -96.1485 -3644.52
lowerback 4.67242 0.682256 -8.80847
upperback -1.59377 0.360753 0.504163
thorax -4.36454 0.424391 5.45139
lowerneck -16.839 0.596266 1.13179
upperneck 22.6327 1.00386 -2.85585
head 10.0065 0.126814 -1.07578
rclavicle -7.95139e-015 9.34288e-015
rhumerus -42.4839 -26.6175 -68.6709
rradius 12.2034
rwrist 28.6051
rhand -28.1708 -17.9859
rfingers 7.12502
rthumb -1.55083 -47.9601
lclavicle -7.95139e-015 9.34288e-015
lhumerus -19.6229 -11.0932 90.4567
lradius 36.0532
lwrist 10.0416
lhand -32.4535 15.176
lfingers 7.12502
lthumb -5.6866 45.0797
rfemur -29.9143 0.879446 16.8896
rtibia 46.3806
rfoot -16.6789 -23.7031
rtoes -9.53315
lfemur -1.03047 -5.03122 -32.173
ltibia 18.9226
lfoot -14.1727 5.04357
ltoes -7.68919
1548
root 0.75888 15.6302 -2.37454 3647.89 -96.1599 -3646.01
lowerback 4.5452 0.676097 -9.0018
upperback -1.66072 0.347096 0.465106
thorax -4.36335 0.424048 5.52067
lowerneck -16.8559 0.557832 1.12788
upperneck 22.5509 0.937429 -2.79346
head 9.97845 0.105302 -1.06109
rclavicle -9.54166e-015 1.80894e-014
rhumerus -41.7448 -26.6976 -69.2231
rradius 12.1893
rwrist 28.5345
rhand -28.3335 -17.8796
rfingers 7.12502
rthumb -1.708 -47.8525
lclavicle -9.54166e-015 1.80894e-014
lhumerus -19.7686 -11.1107 90.4893
lradius 35.9115
lwrist 9.71645
lhand -32.6389 15.1307
lfingers 7.12502
lthumb -5.86562 45.0295
rfemur -30.1687 1.41996 16.7733
rtibia 43.7216
rfoot -16.6845 -23.0498
rtoes -9.66776
lfemur -0.242348 -4.93759 -32.2941
ltibia 17.9618
lfoot -14.0255 4.79247
ltoes -7.79267
1549
root 0.773661 15.6367 -2.38102 3649.17 -96.1716 -3647.02
lowerback 4.39494 0.688073 -9.11655
upperback -1.7297 0.364775 0.416681
thorax -4.35512 0.436703 5.53294
lowerneck -16.8362 0.50965 1.09971
upperneck 22.4613 0.857457 -2.70603
head 9.94029 0.0784696 -1.03523
rclavicle -6.75868e-015 3.63776e-014
rhumerus -41.0131 -26.7457 -69.8043
rradius 12.2118
rwrist 28.6013
rhand -28.449 -17.8407
rfingers 7.12502
rthumb -1.81959 -47.8127
lclavicle -6.75868e-015 3.63776e-014
lhumerus -19.95 -11.1396 90.5429
lradius 35.7277
lwrist 9.52378
lhand -32.8316 15.1245
lfingers 7.12502
lthumb -6.0516 45.018
rfemur -30.3547 2.03083 16.6757
rtibia 41.0533
rfoot -16.5285 -22.4327
rtoes -10.0654
lfemur 0.603294 -4.84652 -32.3644
ltibia 16.8956
lfoot -13.8949 4.58598
ltoes -8.41315
1550
root 0.787298 15.6436 -2.3883 3650.82 -96.2542 -3648.31
lowerback 4.11187 0.699181 -9.31024
upperback -1.81267 0.388879 0.352027
thorax -4.28842 0.451997 5.57243
lowerneck -16.81 0.464146 1.06351
upperneck 22.3622 0.786678 -2.63081
head 9.89792 0.0538098 -1.01099
rclavicle -3.97569e-016 1.09332e-014
rhumerus -40.3737 -27.1173 -70.1323
rradius 12.2144
rwrist 28.8965
rhand -28.5964 -17.5454
rfingers 7.12502
rthumb -1.96191 -47.5161
lclavicle -3.97569e-016 1.09332e-014
lhumerus -20.1152 -11.0111 90.591
lradius 35.4934
lwrist 9.36218
lhand -32.8778 14.9979
lfingers 7.12502
lthumb -6.09626 44.8902
rfemur -30.6152 2.67588 16.4473
rtibia 38.3919
rfoot -16.239 -21.7479
rtoes -11.3248
lfemur 1.46928 -4.76962 -32.5062
ltibia 15.621
lfoot -13.5497 4.33595
ltoes -9.19989
1551
root 0.802768 15.6533 -2.39469 3652.41 -96.2673 -3649.61
lowerback 3.97901 0.695831 -9.41999
upperback -1.90566 0.383818 0.302941
thorax -4.31182 0.455434 5.58298
lowerneck -16.8283 0.43346 1.10325
upperneck 22.3151 0.741929 -2.66245
head 9.88385 0.0339475 -1.03419
rclavicle -1.23246e-014 9.74045e-015
rhumerus -39.07 -25.5818 -72.1003
rradius 12.7398
rwrist 26.0489
rhand -28.2638 -18.2942
rfingers 7.12502
rthumb -1.64066 -48.2676
lclavicle -1.23246e-014 9.74045e-015
lhumerus -20.3679 -10.9114 90.6528
lradius 35.3129
lwrist 9.27291
lhand -32.8886 15.0801
lfingers 7.12502
lthumb -6.10671 44.9721
rfemur -30.7613 3.32 16.1936
rtibia 35.76
rfoot -16.2011 -20.8228
rtoes -11.9256
lfemur 2.45588 -4.56516 -32.5698
ltibia 14.2131
lfoot -13.1211 4.00528
ltoes -10.3818
1552
root 0.813148 15.6641 -2.40069 3654.29 -96.3198 -3651.15
lowerback 3.73442 0.70067 -9.53045
upperback -1.99917 0.400022 0.221262
thorax -4.2755 0.465843 5.55804
lowerneck -16.8129 0.389496 1.11335
upperneck 22.2476 0.673335 -2.63994
head 9.8553 0.00732745 -1.03628
rclavicle -1.59028e-015 1.76918e-014
rhumerus -38.3989 -25.7453 -72.5732
rradius 12.6783
rwrist 26.7572
rhand -28.6478 -17.9729
rfingers 7.12502
rthumb -2.01152 -47.9432
lclavicle -1.59028e-015 1.76918e-014
lhumerus -20.6669 -10.864 90.7563
lradius 35.0492
lwrist 9.30655
lhand -33.0447 14.8454
lfingers 7.12502
lthumb -6.2574 44.733
rfemur -30.9116 4.20519 15.8135
rtibia 33.1873
rfoot -16.3757 -20.1878
rtoes -12.2905
lfemur 3.50239 -4.48253 -32.6976
ltibia 12.6694
lfoot -12.5929 3.65555
ltoes -10.5517
